<?xml version="1.0" standalone="no"?>
<!DOCTYPE svg PUBLIC "-//W3C//DTD SVG 20010904//EN"
 "http://www.w3.org/TR/2001/REC-SVG-20010904/DTD/svg10.dtd">
<svg version="1.0" xmlns="http://www.w3.org/2000/svg"
 width="500.000000pt" height="500.000000pt" viewBox="0 0 500.000000 500.000000"
 preserveAspectRatio="xMidYMid meet">
<metadata>
Created by potrace 1.14, written by Peter Selinger 2001-2017
</metadata>
<g transform="translate(0.000000,500.000000) scale(0.100000,-0.100000)"
fill="#000000" stroke="none">
<path d="M2214 4985 c-125 -16 -155 -21 -224 -36 -939 -196 -1682 -907 -1914
-1834 -14 -55 -28 -116 -31 -135 -3 -19 -8 -42 -10 -50 -4 -17 -12 -79 -24
-185 -13 -111 -10 -389 4 -525 36 -332 159 -707 317 -969 21 -34 38 -65 38
-67 0 -6 85 -128 146 -209 243 -324 626 -621 999 -775 210 -87 459 -156 630
-175 33 -4 69 -9 80 -12 11 -2 99 -7 195 -10 176 -6 306 3 505 32 126 18 355
84 515 147 66 26 229 103 270 127 8 5 51 31 95 57 154 92 357 252 473 374 72
75 175 193 210 240 18 25 47 65 66 90 18 25 53 79 78 120 202 335 316 675 357
1065 9 88 7 485 -3 535 -2 14 -7 43 -10 66 -29 229 -115 507 -229 744 -41 86
-172 311 -186 320 -5 3 -13 14 -19 25 -20 39 -150 196 -234 283 -103 108 -207
200 -319 283 -83 61 -109 78 -244 159 -238 142 -575 261 -850 300 -44 6 -93
13 -110 16 -70 13 -473 12 -571 -1z"/>
</g>
</svg>
